<?xml version="1.0" standalone="no"?>
<!DOCTYPE svg PUBLIC "-//W3C//DTD SVG 20010904//EN"
 "http://www.w3.org/TR/2001/REC-SVG-20010904/DTD/svg10.dtd">
<svg version="1.0" xmlns="http://www.w3.org/2000/svg"
 width="512.000000pt" height="512.000000pt" viewBox="0 0 512.000000 512.000000"
 preserveAspectRatio="xMidYMid meet">
<metadata>
Created by potrace 1.14, written by Peter Selinger 2001-2017
</metadata>
<g transform="translate(0.000000,512.000000) scale(0.100000,-0.100000)"
fill="#000000" stroke="none">
<path d="M0 2560 l0 -2560 2560 0 2560 0 0 2560 0 2560 -2560 0 -2560 0 0
-2560z m3060 1202 l0 -457 -250 -250 -250 -250 -250 250 -250 250 0 458 0 457
500 0 500 0 0 -458z m-995 -952 l250 -250 -250 -250 -250 -250 -457 0 -458 0
0 500 0 500 458 0 457 0 250 -250z m2165 -250 l0 -500 -460 0 -459 0 -251 247
-251 247 253 253 253 253 457 0 458 0 0 -500z m-1171 -1212 l1 -458 -500 0
-500 0 0 457 0 458 253 253 252 253 247 -253 247 -253 0 -457z"/>
</g>
</svg>
